<?xml version="1.0" standalone="no"?><!DOCTYPE svg PUBLIC "-//W3C//DTD SVG 1.1//EN" "http://www.w3.org/Graphics/SVG/1.1/DTD/svg11.dtd"><svg t="1607947171375" class="icon" viewBox="0 0 1024 1024" version="1.1" xmlns="http://www.w3.org/2000/svg" p-id="9656" xmlns:xlink="http://www.w3.org/1999/xlink" width="200" height="200"><defs><style type="text/css"></style></defs><path d="M542.2 512l262.2-262.2c8.3-8.3 8.3-21.8 0-30.2-8.3-8.3-21.8-8.3-30.2 0L512 481.8 249.8 219.6c-8.3-8.3-21.8-8.3-30.2 0-8.3 8.3-8.3 21.8 0 30.2L481.8 512 219.6 774.2c-8.3 8.3-8.3 21.8 0 30.2 4.2 4.2 9.6 6.2 15.1 6.2s10.9-2.1 15.1-6.2L512 542.2l262.2 262.2c4.2 4.2 9.6 6.2 15.1 6.2s10.9-2.1 15.1-6.2c8.3-8.3 8.3-21.8 0-30.2L542.2 512z" p-id="9657"></path></svg>