<?xml version="1.0" standalone="no"?><!DOCTYPE svg PUBLIC "-//W3C//DTD SVG 1.1//EN" "http://www.w3.org/Graphics/SVG/1.1/DTD/svg11.dtd"><svg t="1605871783822" class="icon" viewBox="0 0 1024 1024" version="1.1" xmlns="http://www.w3.org/2000/svg" p-id="1400" xmlns:xlink="http://www.w3.org/1999/xlink" width="200" height="200"><defs><style type="text/css"></style></defs><path d="M518.4 524.8m-70.4 0a70.4 70.4 0 1 0 140.8 0 70.4 70.4 0 1 0-140.8 0Z" fill="#FDD000" p-id="1401"></path><path d="M556.8 825.6c-166.4 0-288-121.6-288-281.6 0-128 108.8-236.8 236.8-236.8 102.4 0 192 83.2 192 192 0 83.2-70.4 153.6-153.6 153.6-6.4 0-6.4-6.4-6.4-6.4 0-6.4 6.4-6.4 6.4-6.4 76.8 0 134.4-64 134.4-134.4C684.8 403.2 608 320 512 320 390.4 320 288 422.4 288 544c0 153.6 115.2 268.8 268.8 268.8 147.2 0 307.2-121.6 307.2-339.2 0-6.4 6.4-6.4 6.4-6.4 6.4 0 6.4 6.4 6.4 6.4 6.4 224-160 352-320 352z" fill="#17A09A" p-id="1402"></path><path d="M563.2 742.4c-38.4 0-76.8-6.4-108.8-25.6-44.8-25.6-76.8-64-96-115.2-19.2-44.8-12.8-96 12.8-140.8 19.2-38.4 51.2-64 89.6-76.8 38.4-12.8 83.2-6.4 115.2 12.8 6.4 0 6.4 6.4 6.4 12.8s-6.4 6.4-12.8 6.4c-32-25.6-70.4-25.6-102.4-12.8-38.4 6.4-64 32-83.2 64-19.2 44.8-25.6 89.6-12.8 134.4 12.8 44.8 44.8 76.8 89.6 102.4 51.2 25.6 108.8 32 166.4 12.8 57.6-19.2 102.4-57.6 128-108.8 70.4-134.4 19.2-288-115.2-358.4-134.4-70.4-326.4-38.4-428.8 160 0 6.4-6.4 6.4-12.8 6.4-6.4-6.4-6.4-12.8-6.4-19.2C300.8 192 512 160 646.4 236.8c147.2 76.8 198.4 243.2 121.6 384-32 57.6-76.8 96-140.8 115.2-19.2 6.4-44.8 6.4-64 6.4z" fill="#17A09A" p-id="1403"></path><path d="M198.4 537.6h-64L128 531.2l6.4-6.4h64c6.4 0 6.4 6.4 6.4 6.4s0 6.4-6.4 6.4z" fill="#17A09A" p-id="1404"></path><path d="M172.8 563.2c-6.4 0-6.4-6.4-6.4-6.4v-57.6c0-6.4 6.4-6.4 6.4-6.4 6.4 0 6.4 6.4 6.4 6.4v57.6c0 6.4-6.4 6.4-6.4 6.4zM230.4 697.6h-64c-6.4 0-6.4-6.4-6.4-6.4 0-6.4 6.4-6.4 6.4-6.4h64c6.4 0 6.4 6.4 6.4 6.4 6.4 0 0 6.4-6.4 6.4z" fill="#17A09A" p-id="1405"></path><path d="M198.4 723.2c-6.4 0-6.4-6.4-6.4-6.4v-57.6c0-6.4 6.4-6.4 6.4-6.4 6.4 0 6.4 6.4 6.4 6.4v57.6c6.4 6.4 0 6.4-6.4 6.4z" fill="#17A09A" p-id="1406"></path><path d="M883.2 345.6h-64c-6.4 0-6.4-6.4-6.4-6.4l6.4-6.4h64c6.4 0 6.4 6.4 6.4 6.4s0 6.4-6.4 6.4z" fill="#17A09A" p-id="1407"></path><path d="M851.2 377.6c-6.4 0-6.4-6.4-6.4-6.4v-64c0-6.4 6.4-6.4 6.4-6.4l6.4 6.4v57.6c6.4 6.4 0 12.8-6.4 12.8z" fill="#17A09A" p-id="1408"></path></svg>